<?xml version="1.0" standalone="no"?>
<!DOCTYPE svg PUBLIC "-//W3C//DTD SVG 20010904//EN"
 "http://www.w3.org/TR/2001/REC-SVG-20010904/DTD/svg10.dtd">
<svg version="1.0" xmlns="http://www.w3.org/2000/svg"
 width="700.000000pt" height="113.000000pt" viewBox="0 0 700.000000 113.000000"
 preserveAspectRatio="xMidYMid meet">
<metadata>
Created by potrace 1.16, written by Peter Selinger 2001-2019
</metadata>
<g transform="translate(0.000000,113.000000) scale(0.100000,-0.100000)"
fill="#000000" stroke="none">
<path d="M720 1050 c-263 -75 -279 -78 -261 -56 12 15 1 59 -18 70 -16 10
-163 -35 -188 -57 -12 -11 -30 -41 -40 -66 -9 -25 -30 -61 -46 -80 -35 -41
-55 -85 -102 -229 -49 -150 -53 -206 -25 -328 28 -122 55 -202 77 -226 19 -22
61 -23 87 -3 35 26 46 19 46 -30 l0 -45 195 0 194 0 63 34 c104 56 152 69 213
55 50 -11 55 -10 104 16 59 33 192 166 247 250 61 91 59 123 -21 415 -37 135
-71 252 -75 260 -26 48 -102 90 -162 89 -24 0 -153 -31 -288 -69z m6 -379 c35
-21 94 -46 132 -56 37 -9 83 -20 103 -26 48 -12 83 -51 75 -82 -7 -30 -70 -73
-129 -87 -53 -14 -145 0 -182 27 -39 29 -85 128 -85 184 0 45 7 79 17 79 2 0
33 -18 69 -39z"/>
<path d="M1870 530 l0 -360 65 0 65 0 1 298 1 297 68 -272 c37 -150 71 -284
74 -298 7 -26 7 -26 103 -23 l97 3 75 303 76 303 -3 -306 -3 -305 70 0 71 0 0
360 0 360 -115 0 c-63 0 -115 -2 -115 -4 0 -11 -142 -594 -148 -609 -5 -12
-34 92 -83 295 l-76 313 -111 3 -112 3 0 -361z"/>
<path d="M4190 830 l0 -60 50 0 50 0 0 -240 0 -240 -50 0 -50 0 0 -60 0 -60
160 0 160 0 0 60 0 60 -45 0 -45 0 0 240 0 240 45 0 45 0 0 60 0 60 -160 0
-160 0 0 -60z"/>
<path d="M5380 830 l0 -60 50 0 50 0 0 -240 0 -240 -50 0 -50 0 0 -60 0 -60
160 0 160 0 0 60 0 60 -45 0 -45 0 0 240 0 240 45 0 45 0 0 60 0 60 -160 0
-160 0 0 -60z"/>
<path d="M5850 530 l0 -360 65 0 65 0 0 160 0 160 135 0 135 0 0 55 0 55 -135
0 -135 0 0 85 0 85 180 0 180 0 0 60 0 60 -245 0 -245 0 0 -360z"/>
<path d="M6390 885 c0 -3 52 -109 115 -235 l115 -230 0 -125 0 -125 65 0 65 0
0 123 0 122 120 235 c66 128 120 235 120 237 0 2 -34 3 -76 1 l-77 -3 -39 -90
c-22 -49 -55 -124 -74 -165 l-35 -75 -76 168 -76 167 -74 0 c-40 0 -73 -2 -73
-5z"/>
<path d="M1655 864 c-33 -8 -102 -23 -152 -35 -78 -17 -93 -24 -93 -40 0 -16
7 -19 45 -19 l45 0 0 -240 0 -240 -45 0 -45 0 0 -60 0 -60 160 0 160 0 0 60 0
60 -45 0 -45 0 0 240 0 240 45 0 45 0 0 55 c0 30 -3 55 -7 54 -5 0 -35 -7 -68
-15z"/>
</g>
</svg>
